<?xml version="1.0" standalone="no"?>
<!DOCTYPE svg PUBLIC "-//W3C//DTD SVG 20010904//EN"
 "http://www.w3.org/TR/2001/REC-SVG-20010904/DTD/svg10.dtd">
<svg version="1.0" xmlns="http://www.w3.org/2000/svg"
 width="700.000000pt" height="700.000000pt" viewBox="0 0 700.000000 700.000000"
 preserveAspectRatio="xMidYMid meet">
<metadata>
Created by potrace 1.11, written by Peter Selinger 2001-2013
</metadata>
<g transform="translate(0.000000,700.000000) scale(0.100000,-0.100000)"
fill="#000000" stroke="none">
<path d="M2430 6183 c0 -4 -37 -8 -83 -9 -133 -2 -158 -4 -153 -12 2 -4 -10
-7 -27 -6 -18 1 -70 -7 -117 -17 -107 -24 -108 -24 -166 -44 -103 -34 -133
-48 -127 -58 3 -5 1 -7 -4 -4 -12 8 -73 -11 -73 -22 0 -4 -8 -7 -18 -8 -23 -2
-163 -88 -157 -97 3 -3 2 -4 -1 -1 -12 8 -45 -16 -38 -27 4 -6 3 -8 -3 -5 -6
4 -20 -1 -31 -11 -12 -9 -36 -28 -54 -42 -68 -52 -121 -108 -113 -121 6 -8 4
-10 -4 -4 -7 4 -19 -1 -29 -12 -81 -91 -93 -106 -88 -119 3 -8 2 -13 -3 -10
-4 3 -16 -3 -26 -14 -10 -11 -14 -20 -10 -20 5 0 2 -6 -7 -12 -24 -19 -100
-159 -159 -293 -35 -81 -97 -320 -94 -369 0 -14 -2 -26 -6 -26 -3 0 -6 -6 -6
-12 -1 -45 -15 -173 -19 -179 -2 -4 0 -10 5 -14 6 -3 7 -15 2 -28 -9 -23 -7
-109 5 -262 3 -49 7 -96 7 -102 0 -7 3 -13 6 -13 3 0 6 -12 7 -27 1 -47 14
-128 35 -210 11 -43 22 -93 24 -112 3 -19 9 -39 12 -45 4 -6 9 -18 10 -27 1
-9 22 -77 47 -150 45 -137 48 -158 28 -196 -7 -12 -13 -30 -15 -40 -2 -10 -9
-31 -16 -47 -6 -16 -10 -35 -7 -43 3 -7 1 -13 -4 -13 -5 0 -16 -26 -25 -57 -8
-32 -22 -80 -30 -108 -8 -27 -17 -66 -20 -85 -3 -19 -10 -52 -16 -74 -6 -21
-8 -40 -5 -43 3 -3 1 -13 -4 -23 -5 -9 -11 -38 -15 -65 -3 -26 -8 -51 -11 -56
-3 -5 1 -9 8 -9 9 0 10 -2 1 -8 -6 -4 -14 -52 -18 -117 -4 -61 -10 -114 -13
-119 -3 -5 1 -6 8 -1 9 6 11 4 5 -5 -11 -19 -12 -119 0 -124 6 -3 4 -5 -3 -5
-7 -1 -11 -5 -7 -11 3 -5 8 -44 10 -87 4 -80 10 -125 26 -203 6 -25 12 -61 15
-80 3 -19 9 -36 14 -38 5 -2 6 -10 3 -18 -3 -8 0 -14 7 -14 6 0 8 -5 5 -11 -4
-5 -2 -22 3 -37 6 -15 14 -36 18 -47 4 -11 8 -22 9 -25 9 -38 29 -80 36 -80 6
0 8 -4 5 -9 -7 -10 91 -204 105 -209 5 -2 9 -9 9 -15 0 -7 11 -24 25 -39 14
-15 25 -30 25 -34 0 -25 188 -219 286 -295 111 -86 293 -187 314 -174 6 4 9 1
8 -5 -2 -9 56 -39 92 -47 3 -1 17 -6 33 -12 15 -6 40 -13 55 -16 30 -7 41 -10
62 -18 18 -6 99 -24 120 -26 8 -1 31 -2 52 -4 20 -1 34 -5 32 -9 -3 -4 4 -7
13 -6 10 0 52 -3 93 -7 73 -6 295 -7 375 0 22 1 50 3 63 4 16 1 21 5 16 14 -6
9 -4 9 7 1 16 -12 68 -9 82 5 5 5 15 7 22 5 14 -6 170 22 188 33 6 4 23 8 37
9 14 2 34 5 45 8 11 2 24 5 29 5 4 1 5 9 2 19 -5 15 -5 15 6 1 12 -14 23 -12
113 17 55 18 101 34 103 35 1 1 7 3 12 4 6 1 11 3 13 5 1 1 9 3 17 5 8 2 29 9
46 16 27 11 43 8 150 -29 65 -22 139 -46 164 -53 25 -7 47 -13 50 -14 3 -1 23
-5 45 -10 50 -11 47 -10 65 -18 30 -12 141 -28 152 -21 7 4 8 3 4 -4 -5 -8 2
-12 21 -13 15 0 37 -3 48 -5 124 -28 523 -33 646 -9 13 3 51 10 84 15 33 6 78
15 100 21 22 5 47 12 55 14 8 2 16 4 18 5 1 2 5 3 10 4 4 1 13 5 20 9 6 5 12
6 12 2 0 -3 9 -1 21 5 11 6 28 13 38 15 9 2 34 10 54 19 21 8 38 15 40 14 9
-4 145 77 141 83 -3 5 1 6 8 4 34 -13 357 242 341 269 -3 5 -1 6 4 3 6 -4 22
9 37 27 14 19 33 41 41 50 9 9 13 22 9 28 -4 7 -4 10 1 6 9 -8 35 15 35 31 0
6 5 11 10 11 6 0 10 6 10 14 0 8 3 16 8 18 11 5 63 88 55 88 -5 0 -3 4 2 8 6
4 18 19 27 33 13 21 14 29 5 40 -7 8 -8 10 -3 6 13 -10 39 30 30 46 -4 6 -3 9
1 4 11 -9 57 103 50 121 -2 7 -1 11 4 7 5 -3 13 9 16 27 4 18 11 38 15 43 4 6
7 22 6 38 -1 15 1 27 5 27 3 0 10 19 14 43 4 23 9 49 11 57 2 8 7 33 10 55 3
22 7 46 10 54 6 17 17 229 17 306 -1 118 -15 260 -26 274 -9 11 -9 13 0 8 8
-5 9 1 2 27 -5 19 -9 38 -8 43 4 26 -2 44 -13 37 -9 -5 -9 -2 1 9 9 12 10 17
2 17 -7 0 -10 4 -6 9 3 5 0 31 -6 58 -6 26 -12 55 -14 63 -31 144 -108 383
-120 372 -5 -4 -5 -2 -2 4 4 6 1 24 -5 41 -9 25 -7 42 16 107 14 42 23 82 20
88 -4 6 -3 8 2 5 8 -5 35 65 49 130 2 10 9 33 14 52 6 19 8 37 6 42 -3 4 -1 9
4 11 5 1 12 19 15 38 3 19 12 64 20 100 10 49 11 69 2 79 -8 11 -8 13 0 8 14
-8 21 15 29 108 4 39 9 72 11 74 2 2 -2 11 -9 19 -7 10 -7 13 -1 9 8 -4 12 10
13 45 0 28 3 53 5 55 2 3 0 18 -4 34 -5 16 -5 27 -1 25 4 -3 6 16 5 42 -7 134
-15 249 -18 267 -3 11 -5 28 -5 38 -1 11 -6 15 -12 11 -8 -4 -8 -1 -2 12 7 13
2 50 -16 122 -14 57 -28 101 -31 99 -3 -3 -6 8 -6 25 -1 17 -5 33 -10 37 -5 3
-10 13 -12 21 -16 86 -173 377 -195 363 -6 -3 -7 -1 -3 5 3 6 -1 18 -10 26 -8
9 -13 16 -11 16 8 0 -51 67 -123 139 -87 89 -162 151 -172 145 -4 -3 -8 -1 -8
4 0 23 -233 157 -252 146 -6 -4 -8 -3 -5 3 7 11 -143 75 -180 77 -13 0 -23 4
-23 7 0 3 -24 11 -52 18 -29 6 -64 14 -78 17 -69 16 -99 21 -122 20 -15 -1
-25 1 -22 5 5 9 -203 23 -311 22 -124 -2 -329 -19 -346 -29 -3 -2 -30 -6 -60
-9 -30 -4 -55 -10 -57 -14 -1 -5 -14 -6 -27 -3 -14 2 -25 0 -25 -4 0 -5 -17
-10 -37 -11 -20 -1 -40 -8 -44 -15 -6 -9 -9 -9 -9 -1 0 8 -8 9 -32 1 -18 -6
-51 -17 -73 -24 -22 -7 -55 -15 -73 -19 -18 -4 -30 -10 -27 -14 2 -5 -6 -7
-20 -6 -13 2 -29 -3 -36 -11 -6 -7 -15 -12 -19 -9 -5 3 -32 -4 -60 -15 -59
-23 -61 -23 -198 25 -57 20 -110 34 -118 31 -9 -3 -12 -1 -9 4 3 6 -1 11 -9
11 -20 2 -21 2 -89 22 -32 10 -62 15 -67 12 -5 -3 -11 -1 -14 4 -3 5 -34 14
-68 20 -35 6 -74 13 -88 16 -14 3 -45 8 -70 11 -25 3 -48 8 -52 11 -5 2 -8 -2
-8 -9 0 -10 -2 -10 -8 -1 -4 7 -45 15 -97 19 -50 3 -94 8 -98 11 -4 3 -14 -1
-22 -7 -8 -7 -15 -8 -15 -3 0 13 -33 12 -42 -1 -5 -7 -11 -8 -15 -1 -10 12
-43 19 -43 8z m-10 -97 c0 -2 -8 -10 -17 -17 -16 -13 -17 -12 -4 4 13 16 21
21 21 13z m61 -13 c13 -16 12 -17 -3 -4 -10 7 -18 15 -18 17 0 8 8 3 21 -13z
m1760 -160 c13 -16 12 -17 -3 -4 -10 7 -18 15 -18 17 0 8 8 3 21 -13z m960 0
c13 -16 12 -17 -3 -4 -10 7 -18 15 -18 17 0 8 8 3 21 -13z m-2033 -38 c-3 -3
-9 2 -12 12 -6 14 -5 15 5 6 7 -7 10 -15 7 -18z m-1318 -19 c0 -2 -8 -10 -17
-17 -16 -13 -17 -12 -4 4 13 16 21 21 21 13z m-315 -56 c-3 -5 -12 -10 -18
-10 -7 0 -6 4 3 10 19 12 23 12 15 0z m2946 -47 c13 -16 12 -17 -3 -4 -10 7
-18 15 -18 17 0 8 8 3 21 -13z m766 -28 c0 -8 -4 -12 -9 -9 -5 3 -6 10 -3 15
9 13 12 11 12 -6z m-3922 -4 c3 -5 2 -12 -3 -15 -5 -3 -9 1 -9 9 0 17 3 19 12
6z m1400 -9 c-3 -3 -11 0 -18 7 -9 10 -8 11 6 5 10 -3 15 -9 12 -12z m2015
-186 c0 -2 -8 -10 -17 -17 -16 -13 -17 -12 -4 4 13 16 21 21 21 13z m583 -41
c-3 -9 -8 -14 -10 -11 -3 3 -2 9 2 15 9 16 15 13 8 -4z m-4002 -12 c13 -16 12
-17 -3 -4 -10 7 -18 15 -18 17 0 8 8 3 21 -13z m1263 8 c12 -1 -29 -41 -42
-41 -4 0 -21 -13 -37 -30 -16 -16 -35 -30 -43 -30 -8 0 -12 -6 -9 -14 4 -9 1
-13 -6 -11 -16 5 -153 -109 -149 -124 1 -7 -2 -9 -9 -6 -6 4 -19 -1 -28 -11
-10 -11 -46 -44 -81 -74 -34 -30 -70 -63 -79 -74 -9 -10 -22 -24 -29 -30 -45
-39 -62 -58 -57 -67 3 -5 -1 -6 -9 -3 -11 4 -16 0 -16 -10 0 -9 -7 -16 -15
-16 -8 0 -15 -3 -15 -7 0 -5 -26 -35 -58 -69 -73 -77 -176 -193 -204 -230 -12
-16 -25 -31 -28 -34 -27 -25 -130 -172 -126 -179 4 -5 -2 -8 -11 -7 -16 3 -18
16 -18 122 0 65 3 129 7 140 4 14 1 28 -10 40 -16 17 -16 17 1 5 18 -14 18
-15 21 71 0 14 4 24 8 22 5 -3 8 1 9 8 0 7 2 20 4 28 2 8 5 24 8 35 2 11 10
36 17 55 8 19 12 37 11 39 -1 2 1 7 6 10 4 3 18 27 31 53 13 26 27 50 33 53 5
4 7 10 5 14 -3 4 30 45 74 91 43 46 76 88 73 94 -3 5 -1 6 4 3 6 -4 35 9 65
29 64 44 158 89 221 105 25 7 44 16 42 19 -3 4 7 5 22 2 14 -3 23 -1 20 4 -3
5 9 10 26 10 48 3 192 16 195 19 2 2 151 -1 176 -4z m2102 -3 c5 -3 34 -7 64
-9 30 -2 57 -7 60 -11 3 -4 17 -8 32 -10 15 -2 30 -7 34 -11 4 -4 16 -7 26 -7
24 0 139 -54 208 -98 57 -36 210 -184 210 -203 0 -5 6 -7 13 -3 6 4 9 4 5 -1
-10 -11 53 -125 65 -118 6 4 8 0 4 -11 -4 -9 3 -40 14 -69 23 -56 27 -72 28
-100 1 -10 4 -16 9 -14 4 3 7 -7 8 -21 1 -15 4 -52 8 -82 10 -73 13 -300 4
-300 -3 0 -27 29 -52 64 -25 36 -52 70 -58 78 -7 7 -25 29 -39 48 -15 19 -37
46 -49 60 -12 14 -40 47 -63 74 -89 104 -150 165 -160 159 -5 -3 -8 -2 -4 3 8
14 -90 117 -104 108 -8 -4 -9 -3 -5 5 8 12 -41 58 -57 53 -5 -1 -6 2 -3 7 7
10 -111 117 -126 113 -5 -1 -7 2 -4 7 3 5 -16 26 -42 47 -26 21 -56 47 -67 57
-11 10 -68 55 -128 99 -59 45 -103 84 -97 88 12 7 253 6 266 -2z m1164 -22 c0
-2 -8 -10 -17 -17 -16 -13 -17 -12 -4 4 13 16 21 21 21 13z m-3310 -50 c0 -2
-8 -10 -17 -17 -16 -13 -17 -12 -4 4 13 16 21 21 21 13z m-1419 -133 c13 -16
12 -17 -3 -4 -17 13 -22 21 -14 21 2 0 10 -8 17 -17z m179 13 c0 -2 -8 -10
-17 -17 -16 -13 -17 -12 -4 4 13 16 21 21 21 13z m-40 -40 c0 -2 -8 -10 -17
-17 -16 -13 -17 -12 -4 4 13 16 21 21 21 13z m1341 -13 c13 -16 12 -17 -3 -4
-10 7 -18 15 -18 17 0 8 8 3 21 -13z m419 13 c0 -2 -8 -10 -17 -17 -16 -13
-17 -12 -4 4 13 16 21 21 21 13z m513 -51 c19 -8 37 -11 41 -8 3 4 6 2 6 -4 0
-6 51 -39 113 -73 61 -35 114 -66 117 -69 3 -4 30 -22 60 -41 30 -19 60 -38
65 -42 6 -4 33 -26 62 -48 29 -22 57 -40 62 -40 5 0 11 -3 13 -7 7 -18 206
-171 213 -165 4 4 5 2 3 -4 -4 -12 114 -124 131 -124 6 0 10 -4 8 -8 -1 -5 23
-33 53 -63 30 -30 89 -91 130 -134 41 -44 78 -79 82 -78 5 2 7 -1 5 -5 -2 -7
22 -40 77 -105 10 -12 36 -46 58 -74 22 -29 44 -50 49 -47 5 3 6 -2 3 -10 -4
-9 1 -18 10 -22 9 -3 16 -12 16 -18 0 -7 9 -22 20 -34 11 -12 20 -23 20 -26 0
-16 84 -125 93 -119 6 3 7 1 3 -5 -8 -13 23 -74 34 -67 3 2 7 -6 7 -18 1 -12
7 -23 13 -25 5 -2 10 -10 10 -18 0 -9 5 -12 10 -9 6 4 9 3 8 -2 -5 -16 35 -92
45 -86 6 3 7 1 4 -5 -4 -5 3 -28 14 -50 20 -38 21 -41 4 -75 -9 -20 -13 -41
-9 -48 4 -7 3 -9 -4 -6 -8 6 -84 -112 -101 -158 -2 -5 -13 -20 -24 -32 -11
-13 -17 -23 -13 -23 4 0 -2 -10 -14 -22 -11 -12 -20 -27 -20 -33 0 -6 -8 -20
-18 -31 -10 -10 -33 -41 -52 -69 -19 -27 -49 -70 -67 -93 -18 -24 -30 -49 -27
-54 4 -6 2 -8 -3 -5 -6 4 -21 -8 -34 -25 -13 -17 -30 -37 -37 -45 -7 -7 -10
-17 -7 -23 4 -6 3 -9 -2 -8 -8 3 -63 -46 -63 -56 0 -2 -24 -31 -54 -63 -45
-47 -53 -60 -43 -73 9 -12 9 -13 -2 -3 -11 9 -34 -8 -117 -91 -56 -57 -130
-127 -163 -156 -33 -29 -58 -57 -54 -63 3 -6 1 -7 -6 -3 -6 4 -17 1 -25 -6
-57 -57 -221 -179 -390 -291 -53 -35 -93 -67 -89 -72 5 -4 2 -5 -5 0 -9 4 -25
-1 -42 -14 -16 -11 -70 -42 -120 -67 l-91 -46 -77 40 c-99 51 -143 75 -156 85
-70 50 -161 105 -168 101 -4 -3 -8 0 -8 6 0 14 -61 50 -73 43 -6 -3 -7 -1 -3
5 3 6 -29 36 -76 71 -46 33 -96 71 -113 86 -16 14 -50 42 -74 63 -24 20 -49
43 -56 49 -8 7 -16 13 -19 13 -2 0 -65 60 -138 132 -73 73 -136 132 -140 130
-5 -1 -7 1 -6 5 6 17 -31 55 -44 47 -7 -4 -10 -4 -6 1 10 11 -11 47 -23 40 -5
-4 -8 -2 -7 3 5 16 -83 113 -94 105 -7 -3 -8 -1 -4 5 4 7 -20 47 -57 94 -35
46 -83 111 -106 146 -23 34 -46 60 -50 57 -5 -2 -8 3 -7 13 0 9 -5 16 -12 14
-8 -1 -11 2 -7 8 6 10 -7 40 -27 62 -7 7 -23 31 -35 53 -64 119 -83 150 -93
147 -6 -1 -8 2 -5 9 4 6 -1 25 -10 44 -18 32 -18 33 6 81 44 88 139 253 150
260 6 4 6 11 -2 20 -10 12 -9 13 4 8 12 -4 20 1 27 17 5 13 30 52 55 87 25 34
43 68 39 74 -4 6 -3 8 3 5 6 -4 37 28 69 71 31 42 60 79 63 82 3 3 31 34 60
70 73 87 82 97 108 122 12 11 20 25 17 30 -3 5 -2 7 3 6 15 -5 105 91 97 103
-4 7 -3 9 3 6 15 -9 84 53 76 67 -3 6 -2 8 2 3 5 -4 22 6 39 22 111 105 146
137 146 133 0 -3 9 3 20 13 16 14 17 20 8 27 -8 5 -4 7 12 6 18 -2 25 2 24 14
-1 9 4 14 10 12 6 -2 51 26 99 63 49 38 100 74 113 81 13 7 24 18 24 24 0 6 3
8 7 5 9 -10 34 14 26 26 -3 6 -1 7 6 3 15 -9 64 21 56 34 -3 6 0 7 8 4 8 -3
21 2 30 10 9 9 18 16 20 16 7 0 151 83 157 90 3 3 21 12 40 20 19 7 39 17 45
22 12 11 17 10 58 -7z m-923 -19 c0 -2 -8 -10 -17 -17 -16 -13 -17 -12 -4 4
13 16 21 21 21 13z m1690 -10 c0 -2 -8 -10 -17 -17 -16 -13 -17 -12 -4 4 13
16 21 21 21 13z m360 -40 c0 -2 -8 -10 -17 -17 -16 -13 -17 -12 -4 4 13 16 21
21 21 13z m-374 -52 c1 -9 0 -13 -4 -10 -3 4 -7 14 -8 22 -1 9 0 13 4 10 3 -4
7 -14 8 -22z m174 12 c0 -2 -8 -10 -17 -17 -16 -13 -17 -12 -4 4 13 16 21 21
21 13z m-3410 -30 c0 -2 -8 -10 -17 -17 -16 -13 -17 -12 -4 4 13 16 21 21 21
13z m1361 -13 c13 -16 12 -17 -3 -4 -17 13 -22 21 -14 21 2 0 10 -8 17 -17z
m3120 0 c13 -16 12 -17 -3 -4 -10 7 -18 15 -18 17 0 8 8 3 21 -13z m159 13 c0
-2 -8 -10 -17 -17 -16 -13 -17 -12 -4 4 13 16 21 21 21 13z m-4394 -18 c3 -4
-1 -5 -10 -4 -8 1 -18 5 -22 8 -3 4 1 5 10 4 8 -1 18 -5 22 -8z m4318 4 c2 -4
-4 -8 -14 -8 -10 0 -16 4 -14 8 3 4 9 8 14 8 5 0 11 -4 14 -8z m-1166 -47 c-3
-3 -9 2 -12 12 -6 14 -5 15 5 6 7 -7 10 -15 7 -18z m393 -2 c13 -16 12 -17 -3
-4 -17 13 -22 21 -14 21 2 0 10 -8 17 -17z m-3391 -67 c0 -3 -4 -8 -10 -11 -5
-3 -10 -1 -10 4 0 6 5 11 10 11 6 0 10 -2 10 -4z m671 -13 c13 -16 12 -17 -3
-4 -10 7 -18 15 -18 17 0 8 8 3 21 -13z m259 13 c0 -2 -8 -10 -17 -17 -16 -13
-17 -12 -4 4 13 16 21 21 21 13z m541 -13 c13 -16 12 -17 -3 -4 -17 13 -22 21
-14 21 2 0 10 -8 17 -17z m-191 -17 c0 -2 -8 -10 -17 -17 -16 -13 -17 -12 -4
4 13 16 21 21 21 13z m2275 -64 c-3 -3 -11 0 -18 7 -9 10 -8 11 6 5 10 -3 15
-9 12 -12z m-315 -136 c0 -2 -8 -10 -17 -17 -16 -13 -17 -12 -4 4 13 16 21 21
21 13z m671 -223 c13 -16 12 -17 -3 -4 -10 7 -18 15 -18 17 0 8 8 3 21 -13z
m419 13 c0 -2 -8 -10 -17 -17 -16 -13 -17 -12 -4 4 13 16 21 21 21 13z m-4850
-30 c0 -2 -8 -10 -17 -17 -16 -13 -17 -12 -4 4 13 16 21 21 21 13z m114 -26
c-6 -6 -10 -3 -10 10 0 13 4 16 10 10 7 -7 7 -13 0 -20z m4371 -150 c-3 -5
-12 -10 -18 -10 -7 0 -6 4 3 10 19 12 23 12 15 0z m-4085 -79 c0 -6 -4 -12 -8
-15 -5 -3 -9 1 -9 9 0 8 4 15 9 15 4 0 8 -4 8 -9z m450 -77 c0 -8 -19 -13 -24
-6 -3 5 1 9 9 9 8 0 15 -2 15 -3z m-886 -42 c3 -5 -1 -9 -9 -9 -8 0 -12 4 -9
9 3 4 7 8 9 8 2 0 6 -4 9 -8z m80 0 c2 -4 -4 -8 -14 -8 -10 0 -16 4 -14 8 3 4
9 8 14 8 5 0 11 -4 14 -8z m916 -116 c0 -2 -7 -7 -16 -10 -8 -3 -12 -2 -9 4 6
10 25 14 25 6z m4041 -43 c13 -16 12 -17 -3 -4 -10 7 -18 15 -18 17 0 8 8 3
21 -13z m-4170 -50 c13 -16 12 -17 -3 -4 -10 7 -18 15 -18 17 0 8 8 3 21 -13z
m3569 -27 c0 -3 -4 -8 -10 -11 -5 -3 -10 -1 -10 4 0 6 5 11 10 11 6 0 10 -2
10 -4z m-3475 -166 c-3 -5 -12 -10 -18 -10 -7 0 -6 4 3 10 19 12 23 12 15 0z
m-54 -367 c13 -16 12 -17 -3 -4 -10 7 -18 15 -18 17 0 8 8 3 21 -13z m4124
-113 c3 -5 1 -10 -4 -10 -6 0 -11 5 -11 10 0 6 2 10 4 10 3 0 8 -4 11 -10z
m-4759 -126 c1 -9 0 -13 -4 -10 -3 4 -7 14 -8 22 -1 9 0 13 4 10 3 -4 7 -14 8
-22z m-226 12 c0 -2 -8 -10 -17 -17 -16 -13 -17 -12 -4 4 13 16 21 21 21 13z
m230 -70 c0 -2 -8 -10 -17 -17 -16 -13 -17 -12 -4 4 13 16 21 21 21 13z m-240
-16 c0 -5 -2 -10 -4 -10 -3 0 -8 5 -11 10 -3 6 -1 10 4 10 6 0 11 -4 11 -10z
m111 -13 c-10 -9 -11 -8 -5 6 3 10 9 15 12 12 3 -3 0 -11 -7 -18z m609 19 c0
-3 -4 -8 -10 -11 -5 -3 -10 -1 -10 4 0 6 5 11 10 11 6 0 10 -2 10 -4z m311
-13 c13 -16 12 -17 -3 -4 -10 7 -18 15 -18 17 0 8 8 3 21 -13z m3930 -70 c13
-16 12 -17 -3 -4 -10 7 -18 15 -18 17 0 8 8 3 21 -13z m-161 -77 c0 -2 -7 -7
-16 -10 -8 -3 -12 -2 -9 4 6 10 25 14 25 6z m-4835 -86 c-3 -5 -12 -10 -18
-10 -7 0 -6 4 3 10 19 12 23 12 15 0z m4045 6 c0 -2 -8 -10 -17 -17 -16 -13
-17 -12 -4 4 13 16 21 21 21 13z m-3160 -40 c0 -2 -8 -10 -17 -17 -16 -13 -17
-12 -4 4 13 16 21 21 21 13z m-889 -43 c13 -16 12 -17 -3 -4 -10 7 -18 15 -18
17 0 8 8 3 21 -13z m750 -10 c13 -16 12 -17 -3 -4 -10 7 -18 15 -18 17 0 8 8
3 21 -13z m-426 -33 c3 -6 -1 -7 -9 -4 -18 7 -21 14 -7 14 6 0 13 -4 16 -10z
m80 1 c-9 -8 -36 -10 -30 -2 2 4 11 8 20 8 8 0 13 -3 10 -6z m290 -131 c52
-69 61 -80 100 -122 14 -15 25 -30 25 -33 0 -3 11 -18 24 -33 14 -15 34 -38
46 -52 85 -99 154 -169 163 -163 5 3 7 1 4 -4 -4 -6 25 -42 63 -81 39 -39 70
-69 70 -68 0 2 27 -24 59 -57 33 -32 65 -56 71 -52 6 3 10 3 9 -2 -4 -23 2
-35 17 -29 8 3 13 2 10 -3 -6 -9 64 -67 77 -63 5 1 6 -2 3 -7 -4 -5 8 -20 26
-32 18 -13 39 -29 46 -36 7 -7 55 -45 107 -84 52 -39 95 -72 95 -73 0 -4 -288
2 -296 6 -5 3 -33 9 -63 12 -58 7 -178 44 -251 78 -56 25 -170 99 -170 110 0
4 -5 8 -10 8 -6 0 -26 18 -46 40 -20 22 -40 37 -45 34 -5 -3 -6 2 -3 10 3 9 2
16 -3 16 -6 0 -18 15 -28 34 -11 19 -23 32 -27 30 -5 -3 -7 -2 -6 3 3 10 -43
105 -55 114 -5 3 -8 8 -7 10 4 7 -34 124 -41 127 -4 2 -4 12 -1 24 3 12 1 19
-4 16 -5 -3 -10 19 -12 49 -1 31 -5 60 -9 66 -3 5 -7 61 -8 123 -1 63 -5 117
-8 120 -3 4 -1 15 6 25 6 10 14 15 18 11 3 -4 28 -36 54 -72z m3900 -4 c-1
-50 2 -73 9 -68 7 4 7 1 0 -9 -6 -8 -10 -38 -10 -66 1 -29 -1 -53 -4 -53 -3 0
-6 -10 -7 -22 -9 -117 -91 -343 -149 -409 -11 -12 -11 -18 -1 -28 9 -10 9 -11
-3 -7 -10 4 -29 -11 -55 -43 -22 -26 -54 -59 -72 -72 -17 -13 -29 -28 -25 -33
3 -5 0 -6 -6 -2 -6 3 -17 -1 -25 -9 -19 -19 -183 -101 -219 -110 -16 -4 -25
-12 -21 -18 3 -5 2 -7 -4 -4 -6 4 -41 0 -79 -8 -94 -19 -167 -27 -244 -29 -36
0 -68 -5 -72 -11 -5 -7 -8 -6 -8 0 0 6 -17 11 -37 10 -57 -1 -58 4 -11 35 24
16 53 38 65 49 12 12 25 21 28 21 13 0 150 123 147 133 -1 4 2 6 7 2 6 -3 31
14 57 37 44 41 193 180 256 241 16 15 26 32 22 39 -4 6 -3 8 3 5 9 -6 43 27
169 165 14 16 22 33 18 39 -4 7 -3 9 3 6 11 -7 41 24 115 118 26 33 52 65 57
71 4 6 25 34 46 62 20 29 40 50 44 48 4 -3 7 -39 6 -80z m129 56 c2 -4 -4 -8
-14 -8 -10 0 -16 4 -14 8 3 4 9 8 14 8 5 0 11 -4 14 -8z m-3443 -39 c13 -16
12 -17 -3 -4 -10 7 -18 15 -18 17 0 8 8 3 21 -13z m199 13 c0 -2 -8 -10 -17
-17 -16 -13 -17 -12 -4 4 13 16 21 21 21 13z m-365 -15 c3 -5 2 -12 -3 -15 -5
-3 -9 1 -9 9 0 17 3 19 12 6z m-155 -25 c0 -2 -8 -10 -17 -17 -16 -13 -17 -12
-4 4 13 16 21 21 21 13z m3285 -15 c-9 -8 -36 -10 -30 -2 2 4 11 8 20 8 8 0
13 -3 10 -6z m965 -75 c0 -2 -8 -10 -17 -17 -16 -13 -17 -12 -4 4 13 16 21 21
21 13z m-1329 -43 c13 -16 12 -17 -3 -4 -17 13 -22 21 -14 21 2 0 10 -8 17
-17z m74 -11 c-3 -3 -11 0 -18 7 -9 10 -8 11 6 5 10 -3 15 -9 12 -12z m-195
-16 c0 -2 -8 -10 -17 -17 -16 -13 -17 -12 -4 4 13 16 21 21 21 13z m-200 -40
c0 -2 -8 -10 -17 -17 -16 -13 -17 -12 -4 4 13 16 21 21 21 13z m-190 -50 c0
-2 -8 -10 -17 -17 -16 -13 -17 -12 -4 4 13 16 21 21 21 13z m70 -10 c-7 -7
-13 -7 -20 0 -6 6 -3 10 10 10 13 0 16 -4 10 -10z m71 -3 c13 -16 12 -17 -3
-4 -17 13 -22 21 -14 21 2 0 10 -8 17 -17z m-3475 -28 c-1 -8 -5 -17 -8 -21
-5 -4 -4 16 1 34 3 9 9 -1 7 -13z m4159 -34 c3 -5 2 -12 -3 -15 -5 -3 -9 1 -9
9 0 17 3 19 12 6z m-3145 -7 c0 -8 -19 -13 -24 -6 -3 5 1 9 9 9 8 0 15 -2 15
-3z m61 -11 c13 -16 12 -17 -3 -4 -10 7 -18 15 -18 17 0 8 8 3 21 -13z m-1070
-30 c13 -16 12 -17 -3 -4 -17 13 -22 21 -14 21 2 0 10 -8 17 -17z m1129 3 c0
-2 -8 -10 -17 -17 -16 -13 -17 -12 -4 4 13 16 21 21 21 13z m4031 -43 c13 -16
12 -17 -3 -4 -10 7 -18 15 -18 17 0 8 8 3 21 -13z m-285 -43 c0 -12 -4 -16 -9
-11 -5 5 -6 14 -3 20 10 15 12 14 12 -9z m-3 -75 c-3 -9 -8 -14 -10 -11 -3 3
-2 9 2 15 9 16 15 13 8 -4z m-3143 -39 c0 -2 -8 -10 -17 -17 -16 -13 -17 -12
-4 4 13 16 21 21 21 13z m2000 0 c0 -2 -8 -10 -17 -17 -16 -13 -17 -12 -4 4
13 16 21 21 21 13z m61 -13 c13 -16 12 -17 -3 -4 -17 13 -22 21 -14 21 2 0 10
-8 17 -17z m-3190 -70 c13 -16 12 -17 -3 -4 -10 7 -18 15 -18 17 0 8 8 3 21
-13z m84 -2 c-9 -8 -36 -10 -30 -2 2 4 11 8 20 8 8 0 13 -3 10 -6z m1445 5 c0
-2 -8 -10 -17 -17 -16 -13 -17 -12 -4 4 13 16 21 21 21 13z m2421 -53 c13 -16
12 -17 -3 -4 -10 7 -18 15 -18 17 0 8 8 3 21 -13z m-1465 -35 c3 -4 -1 -5 -10
-4 -8 1 -18 5 -22 8 -3 4 1 5 10 4 8 -1 18 -5 22 -8z m1825 -5 c13 -16 12 -17
-3 -4 -10 7 -18 15 -18 17 0 8 8 3 21 -13z m-1551 -17 c0 -2 -8 -10 -17 -17
-16 -13 -17 -12 -4 4 13 16 21 21 21 13z m1200 0 c0 -2 -8 -10 -17 -17 -16
-13 -17 -12 -4 4 13 16 21 21 21 13z m481 -13 c13 -16 12 -17 -3 -4 -10 7 -18
15 -18 17 0 8 8 3 21 -13z m-4841 -27 c0 -2 -8 -10 -17 -17 -16 -13 -17 -12
-4 4 13 16 21 21 21 13z m-76 -14 c3 -5 -1 -9 -9 -9 -8 0 -15 4 -15 9 0 4 4 8
9 8 6 0 12 -4 15 -8z m556 -6 c-7 -7 -13 -7 -20 0 -6 6 -3 10 10 10 13 0 16
-4 10 -10z m2881 -33 c13 -16 12 -17 -3 -4 -17 13 -22 21 -14 21 2 0 10 -8 17
-17z m-446 -3 c3 -5 1 -10 -4 -10 -6 0 -11 5 -11 10 0 6 2 10 4 10 3 0 8 -4
11 -10z m1719 -46 c3 -8 2 -12 -4 -9 -6 3 -10 10 -10 16 0 14 7 11 14 -7z
m-1153 -111 c13 -16 12 -17 -3 -4 -17 13 -22 21 -14 21 2 0 10 -8 17 -17z m70
-10 c13 -16 12 -17 -3 -4 -17 13 -22 21 -14 21 2 0 10 -8 17 -17z m-2190 -110
c13 -16 12 -17 -3 -4 -10 7 -18 15 -18 17 0 8 8 3 21 -13z m-875 -5 c3 -4 -1
-5 -10 -4 -8 1 -18 5 -22 8 -3 4 1 5 10 4 8 -1 18 -5 22 -8z m474 0 c0 -4 -4
-8 -9 -8 -6 0 -12 4 -15 8 -3 5 1 9 9 9 8 0 15 -4 15 -9z m-670 -32 c0 -2 -8
-10 -17 -17 -16 -13 -17 -12 -4 4 13 16 21 21 21 13z m3065 -14 c-3 -3 -11 0
-18 7 -9 10 -8 11 6 5 10 -3 15 -9 12 -12z m-200 -71 c3 -5 2 -12 -3 -15 -5
-3 -9 1 -9 9 0 17 3 19 12 6z m396 -14 c-10 -9 -11 -8 -5 6 3 10 9 15 12 12 3
-3 0 -11 -7 -18z m-190 -24 c13 -16 12 -17 -3 -4 -10 7 -18 15 -18 17 0 8 8 3
21 -13z m-326 -51 c-3 -3 -11 0 -18 7 -9 10 -8 11 6 5 10 -3 15 -9 12 -12z
m716 -39 c13 -16 12 -17 -3 -4 -10 7 -18 15 -18 17 0 8 8 3 21 -13z m-906 -33
c3 -6 -1 -7 -9 -4 -18 7 -21 14 -7 14 6 0 13 -4 16 -10z m756 -37 c13 -16 12
-17 -3 -4 -17 13 -22 21 -14 21 2 0 10 -8 17 -17z m-2671 -37 c0 -2 -8 -10
-17 -17 -16 -13 -17 -12 -4 4 13 16 21 21 21 13z m3227 -11 c0 -8 -4 -12 -9
-9 -5 3 -6 10 -3 15 9 13 12 11 12 -6z m-157 -35 c0 -5 -5 -10 -11 -10 -5 0
-7 5 -4 10 3 6 8 10 11 10 2 0 4 -4 4 -10z"/>
<path d="M3335 4539 c-127 -18 -286 -80 -412 -159 -76 -47 -194 -158 -257
-240 -72 -94 -158 -269 -186 -380 -31 -121 -38 -328 -16 -440 68 -343 269
-610 573 -764 155 -78 288 -106 483 -102 295 7 515 100 721 305 209 209 312
462 308 754 -2 177 -36 312 -115 467 -149 291 -418 492 -742 554 -82 16 -268
18 -357 5z"/>
</g>
</svg>
